<?xml version="1.0" encoding="UTF-8"?>
<svg xmlns="http://www.w3.org/2000/svg" xmlns:xlink="http://www.w3.org/1999/xlink" viewBox="0 0 1924.64 1081.61">
  <defs>
    <style>
      .cls-1 {
        fill: url(#radial-gradient-4);
      }

      .cls-1, .cls-2, .cls-3, .cls-4 {
        mix-blend-mode: color-burn;
      }

      .cls-5 {
        fill: #e2d3ef;
      }

      .cls-2 {
        fill: url(#radial-gradient-3);
      }

      .cls-6 {
        isolation: isolate;
      }

      .cls-3 {
        fill: url(#radial-gradient-2);
      }

      .cls-4 {
        fill: url(#radial-gradient);
      }
    </style>
    <radialGradient id="radial-gradient" cx="1185.51" cy="639.33" fx="1185.51" fy="639.33" r="332.2" gradientTransform="translate(-15.02 1169.5) rotate(-37.18) scale(1.17 .25) skewX(.28)" gradientUnits="userSpaceOnUse">
      <stop offset="0" stop-color="#666"/>
      <stop offset=".22" stop-color="#838383"/>
      <stop offset=".69" stop-color="#ccc"/>
      <stop offset=".98" stop-color="#fff"/>
    </radialGradient>
    <radialGradient id="radial-gradient-2" cx="1168.67" cy="928.87" fx="1168.67" fy="928.87" r="332.2" gradientTransform="translate(465.12 1660.08) rotate(-38.49) scale(1.17 -.25) skewX(-.28)" xlink:href="#radial-gradient"/>
    <radialGradient id="radial-gradient-3" cx="477.25" cy="-50.47" fx="477.25" fy="-50.47" r="332.2" gradientTransform="translate(-79.34 608.44) rotate(-37.85) scale(1 .21)" gradientUnits="userSpaceOnUse">
      <stop offset="0" stop-color="#666"/>
      <stop offset=".98" stop-color="#fff"/>
    </radialGradient>
    <radialGradient id="radial-gradient-4" cx="470.66" cy="107.78" fx="470.66" fy="107.78" gradientTransform="translate(59.45 723.73) rotate(-38.68) scale(1 -.21)" xlink:href="#radial-gradient-3"/>
  </defs>
  <g class="cls-6">
    <g id="Layer_1" data-name="Layer 1">
      <rect class="cls-5" width="1924.64" height="1081.61"/>
    </g>
    <g id="Layer_2" data-name="Layer 2">
      <g>
        <path class="cls-4" d="M1525.16,200.4c-101.1,7.99-245.29,71.47-383.95,176.64-138.65,105.18-237.28,225.9-270.2,319.57l654.14-496.21Z"/>
        <path class="cls-3" d="M1717.54,370.43c-30.71,94.38-126.47,217.28-262.62,325.53-136.14,108.25-278.81,174.94-379.7,185.19l642.31-510.73Z"/>
      </g>
      <path class="cls-2" d="M572.61,90.25c-85.36,6.91-207.09,61.8-324.15,152.76-117.06,90.96-200.33,195.35-228.12,276.36L572.61,90.25Z"/>
      <path class="cls-1" d="M689.32,188.6c-26.61,81.4-108.36,186.99-224.09,279.63-115.73,92.64-236.66,149.29-321.91,157.44L689.32,188.6Z"/>
    </g>
  </g>
</svg>