<?xml version="1.0" encoding="UTF-8"?>
<svg id="Layer_1" data-name="Layer 1" xmlns="http://www.w3.org/2000/svg" viewBox="0 0 513.19 506.03">
  <defs>
    <style>
      .cls-1 {
        fill: none;
      }

      .cls-1, .cls-2, .cls-3, .cls-4, .cls-5 {
        stroke: #000;
        stroke-miterlimit: 10;
      }

      .cls-2 {
        fill: #f7ff55;
      }

      .cls-3 {
        fill: #00aa2f;
      }

      .cls-4 {
        fill: #32b400;
      }

      .cls-5 {
        fill: #fffd94;
      }
    </style>
  </defs>
  <ellipse class="cls-1" cx="256.6" cy="253.01" rx="256.1" ry="252.51"/>
  <path class="cls-3" d="M28.66,368.24c37.52-55,98.13-94.56,164.62-107.47"/>
  <path class="cls-4" d="M306.56,252.9c70.99-5,143.63,19.37,196.79,66.03"/>
  <path class="cls-5" d="M193.28,265.62c2.64-19.44,9.18-39.57,19.39-59.67"/>
  <path class="cls-1" d="M279.86,206.24c10.44,20.36,22.24,40.11,35.31,59.09"/>
  <ellipse class="cls-1" cx="247.9" cy="166.56" rx="49.62" ry="51.89"/>
  <path class="cls-1" d="M194.12,264.09c8.58,12.15,22.24,20.09,36.55,24.55s29.41,5.77,44.37,7c9.17.75,18.51,1.48,27.47-.57,8.96-2.04,17.64-7.33,21.39-15.62,3.09-6.84,1.47-16.44-5.49-19.44-.4-2.01-.8-4.01-1.2-6.02"/>
  <path class="cls-1" d="M215.41,161.34c5.45-3.4,11.63-5.64,18.01-6.54"/>
  <path class="cls-1" d="M271.49,153.1c5.96,1.31,11.65,3.82,16.63,7.31"/>
  <path class="cls-1" d="M257.96,175.11l4,7.76c-1.22,1.05-2.89,1.57-4.5,1.41"/>
  <path class="cls-1" d="M266.67,194.34c-6.08.38-12.24-.57-17.91-2.77"/>
  <path class="cls-2" d="M208.83,141.76c19-2.82,31.83-7.41,50.93-5.44,9.27.96,24.32,14.65,33.64,14.49,6.97-.12,14.67-.87,19.45-5.88,7.11-7.47,10.85-17.95,10.04-28.16-.14-1.78-.46-3.64-1.63-5-.71-.83-1.68-1.39-2.64-1.91-15.71-8.38-34.66-6.86-52.51-6.2-6.37.23-12.79.33-19.08-.69-7.63-1.23-14.9-4.06-22.4-5.92-15.79-3.92-18.47,16.1-31.35,25.93-3.04,2.32-9.65,14.47-11.51,17.79-1.79,3.2-.5,19.64-.5,19.64-5.15,10.02,3.01-4.27,3.01,23.9,0,6.26-1.43,6.4,15.04,22.68,12.02,11.88-1.02-2.96,2.26,6.75.61,1.81,3.86.55,5.76.24,7.08-1.14,2.64-8.47,1.47-15.46s-3.63-12.08-5.84-18.81c-3.06-9.31,4.46-26.04,5.86-37.95Z"/>
  <path class="cls-1" d="M229.28,161.34c.49,5.23.98,10.45,1.47,15.68-.79-4.7-1.58-9.4-2.37-14.09"/>
  <path class="cls-1" d="M279.51,161.34c.49,5.23.98,10.45,1.47,15.68-.79-4.7-1.58-9.4-2.37-14.09"/>
</svg>