<?xml version="1.0" encoding="UTF-8"?>
<svg id="Layer_5" data-name="Layer 5" xmlns="http://www.w3.org/2000/svg" viewBox="0 0 464.88 596.03">
  <defs>
    <style>
      .cls-1 {
        stroke: #8c6239;
        stroke-width: 4px;
      }

      .cls-1, .cls-2, .cls-3 {
        fill: none;
        stroke-miterlimit: 10;
      }

      .cls-2 {
        stroke: #000;
        stroke-width: 37px;
      }

      .cls-3 {
        stroke: #fbb03b;
        stroke-width: 15px;
      }
    </style>
  </defs>
  <g>
    <g>
      <rect class="cls-2" x="180.16" y="45.71" width="94.76" height="94.76" transform="translate(4.98 197.51) rotate(-47.39)"/>
      <rect class="cls-2" x="184.91" y="182.33" width="94.76" height="94.76" transform="translate(-94.03 245.13) rotate(-47.39)"/>
      <rect class="cls-2" x="45.71" y="187.67" width="94.76" height="94.76" transform="translate(-142.92 144.41) rotate(-47.39)"/>
      <rect class="cls-2" x="55.23" y="325.92" width="94.76" height="94.76" transform="translate(-241.58 196.07) rotate(-47.39)"/>
      <rect class="cls-2" x="188.4" y="318.95" width="94.76" height="94.76" transform="translate(-193.45 291.82) rotate(-47.39)"/>
      <rect class="cls-2" x="191.89" y="455.57" width="94.76" height="94.76" transform="translate(-292.86 338.51) rotate(-47.39)"/>
      <rect class="cls-2" x="324.42" y="307.62" width="94.76" height="94.76" transform="translate(-141.18 388.26) rotate(-47.39)"/>
      <rect class="cls-2" x="323.31" y="172.31" width="94.76" height="94.76" transform="translate(-41.96 343.75) rotate(-47.39)"/>
    </g>
    <g>
      <line class="cls-3" x1="371.19" y1="425.1" x2="444.41" y2="343.67"/>
      <line class="cls-3" x1="386.47" y1="268.41" x2="441.04" y2="208.9"/>
      <line class="cls-3" x1="435.97" y1="214.47" x2="362.14" y2="146.12"/>
      <g>
        <line class="cls-3" x1="148.9" y1="350.69" x2="22.37" y2="233.56"/>
        <line class="cls-3" x1="145.33" y1="218.05" x2="81.62" y2="161.96"/>
        <line class="cls-3" x1="305.4" y1="495.57" x2="185.15" y2="384.26"/>
        <line class="cls-3" x1="245.27" y1="574.41" x2="166.73" y2="501.7"/>
        <line class="cls-3" x1="103.13" y1="439.92" x2="31.59" y2="373.69"/>
        <line class="cls-3" x1="29.88" y1="381.87" x2="84.34" y2="320.59"/>
        <line class="cls-3" x1="20.16" y1="241.73" x2="91.71" y2="161.24"/>
        <line class="cls-3" x1="98.11" y1="445.55" x2="216.43" y2="312.44"/>
        <line class="cls-3" x1="109.54" y1="286.21" x2="215" y2="171.73"/>
        <line class="cls-3" x1="156.27" y1="100.11" x2="226.17" y2="24.24"/>
        <line class="cls-3" x1="242.33" y1="143.39" x2="297.54" y2="81.1"/>
        <line class="cls-3" x1="252.7" y1="414.75" x2="356.34" y2="299.49"/>
        <line class="cls-3" x1="166.81" y1="512.34" x2="225.54" y2="447.23"/>
        <line class="cls-3" x1="239.89" y1="569.43" x2="309.64" y2="489.37"/>
        <line class="cls-3" x1="246.66" y1="282.97" x2="370.43" y2="148"/>
        <line class="cls-3" x1="284.42" y1="209.1" x2="157.9" y2="91.97"/>
        <line class="cls-3" x1="297.28" y1="91.03" x2="217.88" y2="21.62"/>
        <line class="cls-3" x1="288.5" y1="345.48" x2="177.24" y2="242.48"/>
        <line class="cls-3" x1="443.12" y1="352.33" x2="316.11" y2="232.53"/>
        <line class="cls-3" x1="379.28" y1="427.14" x2="319.67" y2="370.91"/>
      </g>
    </g>
  </g>
  <line class="cls-1" x1="373.91" y1="422.07" x2="440.7" y2="347.8"/>
  <line class="cls-1" x1="391.26" y1="263.19" x2="436.39" y2="212.33"/>
  <line class="cls-1" x1="435.97" y1="214.47" x2="365.75" y2="149.46"/>
  <line class="cls-1" x1="142.15" y1="344.45" x2="23.98" y2="235.05"/>
  <line class="cls-1" x1="139.78" y1="213.16" x2="85.39" y2="165.28"/>
  <line class="cls-1" x1="305.4" y1="495.57" x2="190.24" y2="388.97"/>
  <line class="cls-1" x1="242.06" y1="569.89" x2="170.49" y2="505.19"/>
  <line class="cls-1" x1="103.13" y1="439.92" x2="32.88" y2="374.88"/>
  <line class="cls-1" x1="33.61" y1="377.67" x2="80.03" y2="325.45"/>
  <line class="cls-1" x1="23.98" y1="237.44" x2="88.21" y2="165.18"/>
  <line class="cls-1" x1="101.16" y1="440.76" x2="211.35" y2="318.09"/>
  <line class="cls-1" x1="114.73" y1="280.57" x2="209.49" y2="177.71"/>
  <line class="cls-1" x1="159.77" y1="96.3" x2="225.12" y2="25.37"/>
  <line class="cls-1" x1="247.59" y1="137.45" x2="293.78" y2="85.34"/>
  <line class="cls-1" x1="257.45" y1="409.47" x2="351.98" y2="304.34"/>
  <line class="cls-1" x1="170.97" y1="507.73" x2="221.06" y2="452.19"/>
  <line class="cls-1" x1="239.89" y1="569.43" x2="305.97" y2="493.59"/>
  <line class="cls-1" x1="252.14" y1="277.01" x2="369.02" y2="149.53"/>
  <line class="cls-1" x1="277.23" y1="202.44" x2="159.75" y2="93.68"/>
  <line class="cls-1" x1="293.31" y1="87.56" x2="222.59" y2="25.73"/>
  <line class="cls-1" x1="283.99" y1="341.31" x2="183.85" y2="248.6"/>
  <line class="cls-1" x1="440.93" y1="350.27" x2="321.65" y2="237.76"/>
  <line class="cls-1" x1="375.39" y1="423.47" x2="322.85" y2="374.34"/>
</svg>